<svg xmlns="http://www.w3.org/2000/svg" version="1.1" xmlns:xlink="http://www.w3.org/1999/xlink" width="200" height="200"><svg xmlns="http://www.w3.org/2000/svg" version="1.1" xmlns:xlink="http://www.w3.org/1999/xlink" viewBox="0 0 200 200"><rect width="200" height="200" fill="url('#gradient')"></rect><defs><linearGradient id="SvgjsLinearGradient1001" gradientTransform="rotate(45 0.5 0.5)"><stop offset="0%" stop-color="#ffffff"></stop><stop offset="100%" stop-color="#ffffff"></stop></linearGradient></defs><g><g fill="#1b839d" transform="matrix(5.076287524098045,0,0,5.076287524098045,4.562085261623309,135.58649522691547)" stroke="#069cf3" stroke-width="0.2"><path d="M8.87 0L6.36-5.02L4.50-5.02L4.50 0L1.07 0L1.07-14.22L6.67-14.22Q9.20-14.22 10.63-13.10Q12.05-11.97 12.05-9.92L12.05-9.92Q12.05-8.44 11.45-7.46Q10.85-6.48 9.57-5.88L9.57-5.88L12.54-0.15L12.54 0L8.87 0ZM4.50-11.57L4.50-7.67L6.67-7.67Q7.65-7.67 8.14-8.18Q8.63-8.69 8.63-9.61Q8.63-10.53 8.13-11.05Q7.64-11.57 6.67-11.57L6.67-11.57L4.50-11.57ZM19.79-4.46L19.79-14.22L23.20-14.22L23.20-4.46Q23.20-3.11 22.57-2.04Q21.94-0.98 20.82-0.39Q19.69 0.20 18.30 0.20L18.30 0.20Q15.98 0.20 14.69-0.98Q13.40-2.15 13.40-4.30L13.40-4.30L16.84-4.30Q16.84-3.32 17.17-2.88Q17.51-2.44 18.30-2.44L18.30-2.44Q19.01-2.44 19.40-2.97Q19.79-3.51 19.79-4.46L19.79-4.46ZM30.04 0L25.36 0L25.36-14.22L29.94-14.22Q31.83-14.22 33.33-13.36Q34.83-12.51 35.68-10.95Q36.52-9.39 36.53-7.46L36.53-7.46L36.53-6.81Q36.53-4.85 35.71-3.31Q34.88-1.76 33.38-0.88Q31.88-0.01 30.04 0L30.04 0ZM29.94-11.57L28.79-11.57L28.79-2.64L29.98-2.64Q31.46-2.64 32.25-3.69Q33.04-4.74 33.04-6.81L33.04-6.81L33.04-7.42Q33.04-9.48 32.25-10.53Q31.46-11.57 29.94-11.57L29.94-11.57Z"></path></g></g></svg><style>@media (prefers-color-scheme: light) { :root { filter: none; } }
@media (prefers-color-scheme: dark) { :root { filter: none; } }
</style></svg>